<?xml version="1.0" encoding="UTF-8" standalone="no"?>
<!DOCTYPE svg PUBLIC "-//W3C//DTD SVG 1.1//EN" "http://www.w3.org/Graphics/SVG/1.1/DTD/svg11.dtd">
<svg width="100%" height="100%" viewBox="0 0 100 100" version="1.1" xmlns="http://www.w3.org/2000/svg" xmlns:xlink="http://www.w3.org/1999/xlink" xml:space="preserve" xmlns:serif="http://www.serif.com/" style="fill-rule:evenodd;clip-rule:evenodd;stroke-linejoin:round;stroke-miterlimit:2;">
    <g transform="matrix(0.0457111,0,0,0.0457111,39.6199,37.2391)">
        <path d="M104.969,39.023C85.714,39.023 70.079,58.585 70.079,82.685L70.079,475.648C70.079,499.748 85.714,519.31 104.969,519.31C124.227,519.31 139.859,499.748 139.859,475.648L139.859,82.685C139.859,58.585 124.227,39.023 104.969,39.023Z" style="fill:rgb(93,154,110);"/>
        <path d="M227.085,148.177C209.752,148.177 195.684,165.785 195.684,187.473L195.684,480.015C195.684,501.702 209.752,519.31 227.085,519.31C244.415,519.31 258.486,501.702 258.486,480.015L258.486,187.473C258.486,165.785 244.415,148.177 227.085,148.177Z" style="fill:rgb(93,154,110);"/>
        <path d="M352.687,257.335C335.357,257.335 321.287,274.944 321.287,296.631L321.287,480.015C321.287,501.702 335.357,519.31 352.687,519.31C370.017,519.31 384.088,501.702 384.088,480.015L384.088,296.631C384.088,274.944 370.017,257.335 352.687,257.335Z" style="fill:rgb(93,154,110);"/>
    </g>
</svg>
