<?xml version="1.0" encoding="UTF-8" standalone="no"?>
<!DOCTYPE svg PUBLIC "-//W3C//DTD SVG 1.1//EN" "http://www.w3.org/Graphics/SVG/1.1/DTD/svg11.dtd">
<svg width="100%" height="100%" viewBox="0 0 100 100" version="1.1" xmlns="http://www.w3.org/2000/svg" xmlns:xlink="http://www.w3.org/1999/xlink" xml:space="preserve" xmlns:serif="http://www.serif.com/" style="fill-rule:evenodd;clip-rule:evenodd;">
    <g transform="matrix(0.292631,0,0,0.292631,35.2898,35.8677)">
        <path d="M84.463,30.36C84.463,26.927 81.676,24.14 78.243,24.14L22.294,24.14C18.861,24.14 16.075,26.927 16.075,30.36L16.075,72.978C16.075,76.41 18.861,79.198 22.294,79.198L78.243,79.198C81.676,79.198 84.463,76.41 84.463,72.978L84.463,30.36Z" style="fill:none;stroke:rgb(93,154,110);stroke-width:5.88px;"/>
        <rect x="20.751" y="40.243" width="5.713" height="5.713" style="fill:rgb(93,154,110);"/>
        <rect x="34.082" y="40.243" width="5.713" height="5.713" style="fill:rgb(93,154,110);"/>
        <rect x="47.413" y="40.243" width="5.713" height="5.713" style="fill:rgb(93,154,110);"/>
        <rect x="20.751" y="49.764" width="5.713" height="5.713" style="fill:rgb(93,154,110);"/>
        <rect x="34.082" y="49.764" width="5.713" height="5.713" style="fill:rgb(93,154,110);"/>
        <rect x="47.413" y="49.764" width="5.713" height="5.713" style="fill:rgb(93,154,110);"/>
        <rect x="20.751" y="59.286" width="5.713" height="5.713" style="fill:rgb(93,154,110);"/>
        <rect x="34.082" y="59.286" width="5.713" height="5.713" style="fill:rgb(93,154,110);"/>
        <rect x="47.413" y="59.286" width="5.713" height="5.713" style="fill:rgb(93,154,110);"/>
        <rect x="60.742" y="40.243" width="5.713" height="5.713" style="fill:rgb(93,154,110);"/>
        <rect x="74.073" y="40.243" width="5.713" height="5.713" style="fill:rgb(93,154,110);"/>
        <rect x="60.742" y="49.764" width="5.713" height="5.713" style="fill:rgb(93,154,110);"/>
        <rect x="74.073" y="49.764" width="5.713" height="5.713" style="fill:rgb(93,154,110);"/>
        <rect x="60.742" y="59.286" width="5.713" height="5.713" style="fill:rgb(93,154,110);"/>
        <rect x="74.073" y="59.286" width="5.713" height="5.713" style="fill:rgb(93,154,110);"/>
        <rect x="22.655" y="17.39" width="3.809" height="11.426" style="fill:rgb(93,154,110);"/>
        <rect x="72.169" y="17.39" width="3.809" height="11.426" style="fill:rgb(93,154,110);"/>
    </g>
</svg>
